<svg xmlns="http://www.w3.org/2000/svg" xmlns:xlink="http://www.w3.org/1999/xlink" viewBox="0 0 163 163"><defs><style>.cls-1{fill:url(#未命名的渐变_11);}.cls-2{fill:url(#未命名的渐变_41);}.cls-3{fill:url(#未命名的渐变_43);}.cls-4{fill:url(#未命名的渐变_41-2);}</style><linearGradient id="未命名的渐变_11" x1="34.19" y1="129.23" x2="85.49" y2="77.93" gradientUnits="userSpaceOnUse"><stop offset="0" stop-color="#f85d62"/><stop offset="1" stop-color="#f96775"/></linearGradient><linearGradient id="未命名的渐变_41" x1="18.51" y1="148.11" x2="144.46" y2="148.11" gradientUnits="userSpaceOnUse"><stop offset="0" stop-color="#25c4ff"/><stop offset="1" stop-color="#0f73ff"/></linearGradient><linearGradient id="未命名的渐变_43" x1="102.8" y1="118.82" x2="166.94" y2="54.69" gradientUnits="userSpaceOnUse"><stop offset="0.13" stop-color="#25c4ff"/><stop offset="1" stop-color="#0f73ff"/></linearGradient><linearGradient id="未命名的渐变_41-2" x1="0" y1="62.41" x2="150.69" y2="62.41" xlink:href="#未命名的渐变_41"/></defs><g id="图层_2" data-name="图层 2"><g id="图层_1-2" data-name="图层 1"><polygon class="cls-1" points="26.73 121.77 73.61 121.78 73.61 121.71 92.93 121.72 59.87 52.31 26.73 121.77"/><path class="cls-2" d="M73.61,133.23l-55.1,0a81.5,81.5,0,0,0,126,0H111.2Z"/><path class="cls-3" d="M105.71,121.73h46.65a81.44,81.44,0,0,0-1.67-83.3L86.9,82.24Z"/><path class="cls-4" d="M59.88,25.51h0L78.51,64.63,86.9,82.24l63.79-43.8A81.49,81.49,0,1,0,12.48,124.83l37-77.47L59.88,25.51Z"/></g></g></svg>